<svg width="16" height="16" viewBox="0 0 16 16" fill="none" xmlns="http://www.w3.org/2000/svg">
<g clip-path="url(#clip0_476_15743)">
<path d="M4.0026 14.6668V2.66683C4.0026 2.31321 4.14308 1.97407 4.39313 1.72402C4.64318 1.47397 4.98232 1.3335 5.33594 1.3335H10.6693C11.0229 1.3335 11.362 1.47397 11.6121 1.72402C11.8621 1.97407 12.0026 2.31321 12.0026 2.66683V14.6668M4.0026 14.6668H12.0026M4.0026 14.6668H2.66927C2.31565 14.6668 1.97651 14.5264 1.72646 14.2763C1.47641 14.0263 1.33594 13.6871 1.33594 13.3335V9.3335C1.33594 8.97987 1.47641 8.64074 1.72646 8.39069C1.97651 8.14064 2.31565 8.00016 2.66927 8.00016H4.0026M12.0026 14.6668H13.3359C13.6896 14.6668 14.0287 14.5264 14.2787 14.2763C14.5288 14.0263 14.6693 13.6871 14.6693 13.3335V7.3335C14.6693 6.97987 14.5288 6.64074 14.2787 6.39069C14.0287 6.14064 13.6896 6.00016 13.3359 6.00016H12.0026M6.66927 4.00016H9.33628M6.66927 6.66683H9.33628M6.66927 9.3335H9.33628M6.66927 12.0002H9.33628" stroke="#FFFCF5" stroke-width="1.33" stroke-linecap="round" stroke-linejoin="round"/>
</g>
<defs>
<clipPath id="clip0_476_15743">
<rect width="16" height="16" fill="white"/>
</clipPath>
</defs>
</svg>
