<svg width="16" height="16" viewBox="0 0 16 16" fill="none" xmlns="http://www.w3.org/2000/svg">
<path d="M14 8H12.512C12.2498 7.99944 11.9946 8.08478 11.7855 8.24298C11.5763 8.40118 11.4248 8.62352 11.354 8.876L9.944 13.892C9.93491 13.9232 9.91596 13.9505 9.89 13.97C9.86404 13.9895 9.83246 14 9.8 14C9.76754 14 9.73596 13.9895 9.71 13.97C9.68404 13.9505 9.66509 13.9232 9.656 13.892L6.344 2.108C6.33491 2.07684 6.31596 2.04947 6.29 2.03C6.26404 2.01053 6.23246 2 6.2 2C6.16754 2 6.13596 2.01053 6.11 2.03C6.08404 2.04947 6.06509 2.07684 6.056 2.108L4.646 7.124C4.57548 7.37549 4.42483 7.59711 4.21692 7.75521C4.00901 7.91331 3.75519 7.99925 3.494 8H2" stroke="#FFFCF5" stroke-width="1.33" stroke-linecap="round" stroke-linejoin="round"/>
</svg>
