<svg width="16" height="16" viewBox="0 0 16 16" fill="none" xmlns="http://www.w3.org/2000/svg">
<path d="M3.55724 9.19969C3.45215 9.20007 3.34911 9.16825 3.2601 9.1079C3.17109 9.04755 3.09976 8.96116 3.0544 8.85877C3.00904 8.75638 2.99151 8.64218 3.00384 8.52946C3.01617 8.41673 3.05786 8.31009 3.12407 8.22194L8.62199 2.10354C8.66323 2.05212 8.71943 2.01737 8.78136 2.005C8.84329 1.99263 8.90728 2.00337 8.96282 2.03546C9.01836 2.06754 9.06214 2.11907 9.087 2.18158C9.11185 2.24409 9.11629 2.31387 9.09958 2.37946L8.03332 5.99052C8.00188 6.08141 7.99132 6.17919 8.00255 6.27545C8.01378 6.37172 8.04646 6.46361 8.09779 6.54324C8.14912 6.62286 8.21757 6.68785 8.29726 6.73263C8.37696 6.7774 8.46552 6.80063 8.55535 6.80031H12.4428C12.5479 6.79993 12.6509 6.83175 12.7399 6.8921C12.8289 6.95245 12.9002 7.03884 12.9456 7.14123C12.991 7.24362 13.0085 7.35782 12.9962 7.47054C12.9838 7.58327 12.9421 7.68991 12.8759 7.77806L7.37801 13.8965C7.33677 13.9479 7.28057 13.9826 7.21864 13.995C7.15671 14.0074 7.09272 13.9966 7.03718 13.9645C6.98164 13.9325 6.93786 13.8809 6.913 13.8184C6.88815 13.7559 6.88371 13.6861 6.90042 13.6205L7.96668 10.0095C7.99812 9.91859 8.00868 9.82081 7.99745 9.72455C7.98622 9.62828 7.95354 9.53639 7.90221 9.45677C7.85088 9.37714 7.78243 9.31215 7.70274 9.26737C7.62304 9.2226 7.53448 9.19937 7.44465 9.19969H3.55724Z" stroke="#1A1A1A" stroke-width="1.33" stroke-linecap="round" stroke-linejoin="round"/>
</svg>
