<svg width="16" height="16" viewBox="0 0 16 16" fill="none" xmlns="http://www.w3.org/2000/svg">
<path fill-rule="evenodd" clip-rule="evenodd" d="M2.87572 3.98005C3.43661 3.37822 4.19723 3.04013 4.99033 3.04013C5.78343 3.04013 6.54406 3.37822 7.10495 3.98005L7.9813 4.91984L8.85766 3.98005C9.13357 3.67344 9.4636 3.42887 9.82851 3.26063C10.1934 3.09238 10.5859 3.00383 10.983 3.00012C11.3802 2.99642 11.774 3.07764 12.1416 3.23906C12.5092 3.40047 12.8431 3.63884 13.124 3.94026C13.4048 4.24167 13.6269 4.6001 13.7773 4.99463C13.9277 5.38916 14.0033 5.81188 13.9999 6.23813C13.9964 6.66439 13.9139 7.08563 13.7572 7.47729C13.6004 7.86896 13.3726 8.22319 13.0869 8.51932L7.9813 14L2.87572 8.51932C2.315 7.91731 2 7.10093 2 6.24969C2 5.39845 2.315 4.58206 2.87572 3.98005Z" stroke="#1A1A1A" stroke-width="1.33" stroke-linejoin="round"/>
</svg>
