<svg width="16" height="16" viewBox="0 0 16 16" fill="none" xmlns="http://www.w3.org/2000/svg">
<path d="M9.99998 13.9999V8.94716C9.99998 8.77965 9.92974 8.619 9.80472 8.50055C9.67969 8.3821 9.51012 8.31556 9.33331 8.31556H6.66665C6.48984 8.31556 6.32027 8.3821 6.19524 8.50055C6.07022 8.619 5.99998 8.77965 5.99998 8.94716V13.9999M2 7.05244C1.99995 6.86869 2.04222 6.68714 2.12386 6.52046C2.20549 6.35378 2.32453 6.20597 2.47267 6.08736L7.13933 2.29842C7.37999 2.10572 7.6849 2 8 2C8.3151 2 8.62001 2.10572 8.86067 2.29842L13.5273 6.08736C13.6755 6.20597 13.7945 6.35378 13.8761 6.52046C13.9578 6.68714 14 6.86869 14 7.05244V12.7368C14 13.0718 13.8595 13.3931 13.6095 13.63C13.3594 13.8669 13.0203 14 12.6667 14H3.33333C2.97971 14 2.64057 13.8669 2.39052 13.63C2.14048 13.3931 2 13.0718 2 12.7368V7.05244Z" stroke="#1A1A1A" stroke-width="1.33" stroke-linecap="round" stroke-linejoin="round"/>
</svg>
