<svg width="80" height="80" viewBox="0 0 80 80" fill="none" xmlns="http://www.w3.org/2000/svg">
<path d="M35.7757 16.9193C43.5404 15.994 51.3944 17.6354 58.1386 21.5928C64.8828 25.5503 70.1465 31.6063 73.1257 38.836C73.4035 39.5844 73.4035 40.4076 73.1257 41.156C71.9007 44.126 70.2818 46.9177 68.3124 49.456M46.9457 47.1927C45.0597 49.0143 42.5337 50.0222 39.9117 49.9994C37.2898 49.9766 34.7816 48.9249 32.9276 47.0709C31.0735 45.2168 30.0218 42.7087 29.999 40.0867C29.9762 37.4647 30.9842 34.9387 32.8057 33.0527M58.2624 58.3293C53.8407 60.9486 48.9073 62.5861 43.7969 63.1307C38.6866 63.6753 33.5189 63.1142 28.6445 61.4856C23.7701 59.857 19.3031 57.199 15.5465 53.6918C11.7898 50.1847 8.83159 45.9105 6.87241 41.1593C6.59461 40.411 6.59461 39.5877 6.87241 38.8393C9.82785 31.6722 15.028 25.6568 21.6924 21.696M6.66575 6.66602L73.3324 73.3327" stroke="black" stroke-width="6.66667" stroke-linecap="round" stroke-linejoin="round"/>
</svg>
