<svg width="80" height="80" viewBox="0 0 80 80" fill="none" xmlns="http://www.w3.org/2000/svg">
<path d="M6.87241 38.8392C6.59461 39.5876 6.59461 40.4109 6.87241 41.1592C9.57808 47.7197 14.1708 53.3291 20.0683 57.2763C25.9658 61.2234 32.9026 63.3305 39.9991 63.3305C47.0956 63.3305 54.0323 61.2234 59.9298 57.2763C65.8274 53.3291 70.4201 47.7197 73.1257 41.1592C73.4035 40.4109 73.4035 39.5876 73.1257 38.8392C70.4201 32.2788 65.8274 26.6694 59.9298 22.7222C54.0323 18.7751 47.0956 16.668 39.9991 16.668C32.9026 16.668 25.9658 18.7751 20.0683 22.7222C14.1708 26.6694 9.57808 32.2788 6.87241 38.8392Z" stroke="black" stroke-width="6.66667" stroke-linecap="round" stroke-linejoin="round"/>
<path d="M39.9991 49.9992C45.5219 49.9992 49.9991 45.5221 49.9991 39.9992C49.9991 34.4764 45.5219 29.9992 39.9991 29.9992C34.4762 29.9992 29.9991 34.4764 29.9991 39.9992C29.9991 45.5221 34.4762 49.9992 39.9991 49.9992Z" stroke="black" stroke-width="6.66667" stroke-linecap="round" stroke-linejoin="round"/>
</svg>
