<svg width="16" height="16" viewBox="0 0 16 16" fill="none" xmlns="http://www.w3.org/2000/svg">
<path d="M1.37761 8.23224C1.32205 8.08256 1.32205 7.91792 1.37761 7.76824C1.91874 6.45614 2.83728 5.33427 4.01679 4.54484C5.19629 3.75541 6.58364 3.33398 8.00294 3.33398C9.42225 3.33398 10.8096 3.75541 11.9891 4.54484C13.1686 5.33427 14.0871 6.45614 14.6283 7.76824C14.6838 7.91792 14.6838 8.08256 14.6283 8.23224C14.0871 9.54434 13.1686 10.6662 11.9891 11.4556C10.8096 12.2451 9.42225 12.6665 8.00294 12.6665C6.58364 12.6665 5.19629 12.2451 4.01679 11.4556C2.83728 10.6662 1.91874 9.54434 1.37761 8.23224Z" stroke="#1A1A1A" stroke-width="1.33" stroke-linecap="round" stroke-linejoin="round"/>
<path d="M8.0032 10.0008C9.10791 10.0008 10.0035 9.10521 10.0035 8.0005C10.0035 6.89579 9.10791 6.00024 8.0032 6.00024C6.89849 6.00024 6.00294 6.89579 6.00294 8.0005C6.00294 9.10521 6.89849 10.0008 8.0032 10.0008Z" stroke="#1A1A1A" stroke-width="1.33" stroke-linecap="round" stroke-linejoin="round"/>
</svg>
