<svg width="16" height="16" viewBox="0 0 16 16" fill="none" xmlns="http://www.w3.org/2000/svg">
<path d="M3.79886 13H12.2005M7.73685 3.14386C7.76275 3.10029 7.8008 3.06396 7.84704 3.03865C7.89327 3.01335 7.946 3 7.9997 3C8.05341 3 8.10613 3.01335 8.15236 3.03865C8.1986 3.06396 8.23665 3.10029 8.26255 3.14386L10.0341 6.25843C10.0764 6.33055 10.1353 6.39311 10.2068 6.44163C10.2782 6.49014 10.3604 6.5234 10.4474 6.53902C10.5343 6.55464 10.624 6.55223 10.7098 6.53197C10.7957 6.51171 10.8756 6.4741 10.9439 6.42183L13.5106 4.38546C13.5599 4.34835 13.6206 4.32667 13.684 4.32355C13.7474 4.32043 13.8103 4.33603 13.8635 4.36809C13.9168 4.40016 13.9577 4.44705 13.9803 4.50201C14.0029 4.55696 14.0062 4.61715 13.9895 4.67391L12.2888 10.3684C12.254 10.4849 12.1793 10.5878 12.0757 10.6614C11.9722 10.735 11.8456 10.7754 11.715 10.7763H4.28495C4.15433 10.7755 4.02757 10.7352 3.92392 10.6616C3.82027 10.588 3.74538 10.485 3.71064 10.3684L2.0105 4.67447C1.99385 4.61771 1.99707 4.55752 2.01971 4.50256C2.04234 4.44761 2.08322 4.40072 2.13646 4.36865C2.18971 4.33658 2.25256 4.32099 2.31598 4.32411C2.37941 4.32723 2.44012 4.34891 2.48939 4.38602L5.05551 6.42239C5.1238 6.47465 5.20374 6.51227 5.28959 6.53253C5.37545 6.55279 5.46507 6.5552 5.55205 6.53958C5.63902 6.52396 5.72118 6.49069 5.79263 6.44218C5.86408 6.39367 5.92305 6.33111 5.96529 6.25899L7.73685 3.14386Z" stroke="#1A1A1A" stroke-width="1.33295" stroke-linecap="round" stroke-linejoin="round"/>
</svg>
