<svg width="16" height="16" viewBox="0 0 16 16" fill="none" xmlns="http://www.w3.org/2000/svg">
<path d="M6.03765 14V7.68267C6.03765 7.13038 6.48536 6.68267 7.03765 6.68267H9.07648C9.62876 6.68267 10.0765 7.13038 10.0765 7.68267V14M6.03765 14L6.0385 11.4537C6.03868 10.9013 5.59091 10.4533 5.0385 10.4533H3C2.44772 10.4533 2 10.901 2 11.4533V13C2 13.5523 2.44771 14 3 14H6.03765ZM6.03765 14H10.0765M10.0765 14V3C10.0765 2.44772 10.5242 2 11.0765 2H13C13.5523 2 14 2.44772 14 3V13C14 13.5523 13.5523 14 13 14H10.0765Z" stroke="#1A1A1A" stroke-width="1.33" stroke-linecap="round" stroke-linejoin="round"/>
</svg>
