<svg width="16" height="16" viewBox="0 0 16 16" fill="none" xmlns="http://www.w3.org/2000/svg">
<path d="M10.6615 14V12.6667C10.6615 11.9594 10.3805 11.2811 9.88041 10.781C9.38031 10.281 8.70204 10 7.99479 10H3.99479C3.28755 10 2.60927 10.281 2.10917 10.781C1.60908 11.2811 1.32813 11.9594 1.32812 12.6667V14M14.6617 14.0005V12.667C14.6613 12.0761 14.4646 11.502 14.1026 11.035C13.7405 10.568 13.2336 10.2344 12.6615 10.0867M10.6615 2.08667C11.2351 2.23355 11.7436 2.5672 12.1067 3.035C12.4699 3.5028 12.6669 4.07814 12.6669 4.67033C12.6669 5.26252 12.4699 5.83787 12.1067 6.30567C11.7436 6.77347 11.2351 7.10711 10.6615 7.254M8.66146 4.66667C8.66146 6.13943 7.46755 7.33333 5.99479 7.33333C4.52203 7.33333 3.32813 6.13943 3.32813 4.66667C3.32813 3.19391 4.52203 2 5.99479 2C7.46755 2 8.66146 3.19391 8.66146 4.66667Z" stroke="#1A1A1A" stroke-width="1.33" stroke-linecap="round" stroke-linejoin="round"/>
</svg>
