<svg width="400" height="78" viewBox="0 0 400 78" fill="none" xmlns="http://www.w3.org/2000/svg">
<path d="M39.5063 0.366353C48.8011 -0.961399 58.353 1.22912 65.6959 8.428C72.99 15.5792 77.5175 27.0944 78.0467 43.2306L78.0488 43.3047V43.3766C78.0488 64.3117 62.655 76.923 47.2882 77.9338C39.5728 78.4411 31.6633 76.0505 25.6717 70.1768C19.6481 64.2713 15.9856 55.2667 15.9856 43.3766V43.2814L15.9917 43.1841C16.2302 37.6755 18.7831 32.522 22.1867 28.5504C25.594 24.5746 30.1751 21.4005 35.0383 20.1057C39.9918 18.787 45.5253 19.3936 49.9014 23.5399C54.123 27.5398 56.5192 34.1442 56.999 43.1396L57.0114 43.3554L57.0011 43.5713C56.771 48.8307 54.9987 53.0205 51.9684 55.6997C48.9498 58.3683 45.1074 59.1381 41.6599 58.3234C38.2261 57.5116 35.1191 55.1131 33.538 51.4531C31.9365 47.7451 32.1154 43.2802 34.1769 38.6623C35.1483 36.4871 37.6533 35.5324 39.7722 36.5295C41.891 37.5268 42.8207 40.0987 41.8495 42.2742C40.5727 45.1347 40.832 46.9638 41.2539 47.9406C41.6965 48.9649 42.5568 49.6431 43.5539 49.8788C44.538 50.1114 45.5936 49.8976 46.4597 49.1319C47.2966 48.392 48.3666 46.7497 48.5536 43.3914C48.1067 35.6492 46.0978 31.7295 44.1763 29.9088C42.3908 28.2172 40.03 27.7305 37.1569 28.4954C34.1937 29.2844 31.0126 31.3722 28.5239 34.276C26.0526 37.1598 24.5796 40.472 24.4269 43.493C24.4503 53.4542 27.4854 59.9712 31.4998 63.9074C35.562 67.8899 41.0587 69.658 46.7482 69.2839C58.1739 68.5324 69.5699 59.253 69.6054 43.4507C69.112 28.7791 65.0472 19.7734 59.8678 14.6953C54.7287 9.65699 47.9151 7.9154 40.6687 8.95063C25.8144 11.073 10.5721 24.6662 8.40979 42.0563C8.11442 44.4298 6.00014 46.1083 3.68833 45.8057C1.3761 45.5026 -0.260744 43.3321 0.0343976 40.9581C2.72835 19.292 21.2776 2.97051 39.5063 0.366353Z" fill="#769382"/>
<path d="M9.97814 58.3478C9.97814 61.1014 7.74445 63.3337 4.98907 63.3337C2.23368 63.3337 8.62911e-10 61.1014 8.62911e-10 58.3478C8.62911e-10 55.5941 2.23368 53.3618 4.98907 53.3618C7.74445 53.3618 9.97814 55.5941 9.97814 58.3478Z" fill="#769382"/>
<path d="M93.8543 70.6636C93.0822 70.6636 92.278 70.5361 91.4415 70.2811C90.6695 70.0261 90.0261 69.4205 89.5114 68.4642C88.9966 67.5079 88.7393 66.0417 88.7393 64.0654C88.7393 62.7903 88.8358 61.1647 89.0288 59.1884C89.2862 57.1483 89.5435 55.172 89.8009 53.2595C90.3156 50.0719 90.766 46.5656 91.152 42.7405C91.6024 38.9155 91.8276 35.1222 91.8276 31.3609C91.8276 30.0221 91.7954 28.6196 91.7311 27.1533C91.6667 25.687 91.538 24.2845 91.345 22.9457C90.959 23.137 90.5086 23.3282 89.9939 23.5195C89.5435 23.647 89.1575 23.7108 88.8358 23.7108C88.1924 23.7108 87.742 23.392 87.4846 22.7545C87.2916 22.0532 87.1951 21.2563 87.1951 20.3638C87.1951 18.3238 87.6777 16.6981 88.6428 15.4868C89.6722 14.2118 91.1842 13.0643 93.1787 12.0443C95.8166 10.578 98.6154 9.52608 101.575 8.88857C104.599 8.1873 107.462 7.83667 110.164 7.83667C114.153 7.83667 117.692 8.53794 120.78 9.94047C123.869 11.343 126.281 13.3193 128.019 15.8693C129.756 18.4194 130.624 21.4795 130.624 25.0495C130.624 28.7471 129.724 32.0303 127.922 34.8991C126.185 37.7679 123.933 40.1267 121.166 41.9755C118.464 43.7606 115.698 44.94 112.867 45.5137C113.896 47.1075 114.99 48.7013 116.148 50.2951C117.37 51.8889 118.593 53.3233 119.815 54.5983C123.483 58.3596 127.214 60.2403 131.01 60.2403C132.04 60.2403 132.941 60.1765 133.713 60.049C134.099 59.9853 134.42 60.1447 134.678 60.5272C134.999 60.8459 135.16 61.5153 135.16 62.5353C135.16 63.7466 134.903 64.9898 134.388 66.2648C133.874 67.4761 133.005 68.4961 131.783 69.3249C130.56 70.1536 128.887 70.568 126.764 70.568C124.255 70.568 121.842 69.7392 119.526 68.0817C117.274 66.4242 115.183 64.3204 113.253 61.7703C111.323 59.1565 109.585 56.4152 108.041 53.5464C106.561 50.6776 105.307 48.0319 104.277 45.6093C104.02 44.9081 103.795 44.2387 103.602 43.6012C103.409 42.8999 103.312 42.2305 103.312 41.593C103.312 40.5092 103.666 39.6167 104.374 38.9155C104.889 38.4054 105.596 38.0548 106.497 37.8636C107.462 37.6723 108.845 37.5767 110.647 37.5767C114.057 37.5767 116.824 36.6523 118.947 34.8035C121.07 32.9547 122.132 30.564 122.132 27.6315C122.132 24.4439 120.909 22.117 118.464 20.6507C116.084 19.1844 113.156 18.4513 109.682 18.4513C106.851 18.4513 103.891 18.8975 100.803 19.7901C100.61 23.9339 100.16 28.6834 99.4518 34.0385C99.0658 37.226 98.7119 40.3817 98.3902 43.5056C98.1329 46.6294 98.0042 49.4663 98.0042 52.0164C98.0042 54.2477 98.1972 56.2239 98.5832 57.9452C99.0336 59.6028 99.9022 61.0372 101.189 62.2484C102.09 63.141 102.54 64.0972 102.54 65.1173C102.54 66.5198 101.736 67.7948 100.127 68.9423C98.5189 70.0899 96.4279 70.6636 93.8543 70.6636Z" fill="#769382"/>
<path d="M154.737 70.9505C149.848 70.9505 146.019 69.5799 143.253 66.8385C140.551 64.0335 139.199 60.1447 139.199 55.1721C139.199 50.6457 140.197 46.5337 142.191 42.8362C144.186 39.1386 146.856 36.206 150.201 34.0385C153.611 31.8072 157.343 30.6915 161.397 30.6915C165.257 30.6915 168.345 31.6478 170.661 33.5603C172.978 35.4091 174.136 37.8954 174.136 41.0192C174.136 43.5056 173.364 45.8006 171.82 47.9044C170.275 50.0082 168.217 51.6976 165.643 52.9726C163.069 54.1839 160.206 54.7895 157.054 54.7895C153.193 54.7895 150.041 53.9289 147.596 52.2076C147.66 55.1402 148.657 57.499 150.588 59.284C152.582 61.069 155.123 61.9616 158.212 61.9616C160.078 61.9616 161.976 61.6428 163.906 61.0053C165.9 60.304 167.605 59.3796 169.021 58.2321C169.922 57.4671 170.758 57.0846 171.53 57.0846C172.173 57.0846 172.688 57.3077 173.074 57.754C173.525 58.1365 173.75 58.6465 173.75 59.284C173.75 60.6865 172.527 62.5353 170.082 64.8304C165.772 68.9105 160.657 70.9505 154.737 70.9505ZM156.185 48.4782C158.501 48.4782 160.431 48 161.976 47.0438C163.52 46.0875 164.292 44.8762 164.292 43.4099C164.292 42.1987 163.777 41.2743 162.748 40.6367C161.718 39.9355 160.303 39.5848 158.501 39.5848C156.121 39.5848 154.03 40.2224 152.228 41.4974C150.491 42.7087 149.236 44.4299 148.464 46.6612C149.365 47.235 150.523 47.6813 151.939 48C153.354 48.3188 154.77 48.4782 156.185 48.4782Z" fill="#769382"/>
<path d="M188.738 44.8443C186.936 44.8443 185.456 44.2706 184.298 43.123C183.204 41.9755 182.657 40.5092 182.657 38.7242C182.657 36.8754 183.269 35.3454 184.491 34.1341C185.778 32.9228 187.354 32.3172 189.22 32.3172C191.022 32.3172 192.469 32.8591 193.563 33.9429C194.657 35.0266 195.204 36.461 195.204 38.2461C195.204 40.1586 194.592 41.7524 193.37 43.0274C192.212 44.2387 190.668 44.8443 188.738 44.8443ZM187.097 70.568C185.295 70.568 183.816 69.9942 182.657 68.8467C181.564 67.6992 181.017 66.2329 181.017 64.4479C181.017 62.5991 181.628 61.069 182.85 59.8578C184.073 58.6465 185.649 58.0409 187.579 58.0409C189.381 58.0409 190.829 58.5827 191.922 59.6665C193.016 60.7503 193.563 62.1847 193.563 63.9697C193.563 65.8823 192.952 67.4761 191.729 68.7511C190.507 69.9624 188.963 70.568 187.097 70.568Z" fill="#769382"/>
<path d="M203.325 70.6636C202.103 70.6636 201.266 70.313 200.816 69.6117C200.365 68.9105 200.14 68.1454 200.14 67.3167C200.14 63.3641 200.526 58.8378 201.298 53.7376C202.135 48.6375 203.132 43.5693 204.29 38.5329C205.32 34.2616 206.445 30.2771 207.668 26.5796C208.955 22.882 210.081 19.8538 211.046 17.495C212.461 14.1799 214.07 11.6617 215.871 9.94047C217.737 8.15542 219.892 7.2629 222.337 7.2629C224.139 7.2629 225.747 7.86854 227.163 9.07982C228.578 10.2273 229.415 12.3311 229.672 15.3912C230.058 19.0888 230.508 22.8182 231.023 26.5796C231.538 30.3409 232.117 33.7835 232.76 36.9073C233.404 39.9674 234.079 42.3261 234.787 43.9837C235.366 45.45 236.203 46.1831 237.296 46.1831C238.519 46.1831 239.58 45.4181 240.481 43.8881C241.318 42.4855 242.218 40.573 243.183 38.1504C244.148 35.7279 245.081 33.1778 245.982 30.5003C246.947 27.759 247.784 25.2727 248.491 23.0414C249.328 20.6188 250.261 18.1963 251.29 15.7737C252.384 13.2874 253.767 11.2474 255.44 9.65358C257.113 7.99605 259.204 7.16728 261.713 7.16728C264.029 7.16728 265.67 7.96417 266.635 9.55796C267.665 11.088 268.179 13.5424 268.179 16.9212C268.179 19.535 268.083 22.2764 267.89 25.1452C267.825 26.8027 267.729 28.524 267.6 30.309C267.536 32.0303 267.504 33.8153 267.504 35.6641C267.504 38.5329 267.632 41.5611 267.89 44.7487C268.212 47.9363 268.791 50.9326 269.627 53.7376C270.528 56.5427 271.847 58.9015 273.584 60.814C274.099 61.2603 274.549 61.7703 274.935 62.3441C275.385 62.9178 275.611 63.5554 275.611 64.2566C275.611 65.8504 274.742 67.3167 273.005 68.6555C271.332 69.9305 269.402 70.568 267.214 70.568C265.22 70.568 263.74 69.9305 262.775 68.6555C261.81 67.3804 261.038 65.6591 260.459 63.4916C259.815 60.814 259.365 57.9452 259.107 54.8852C258.85 51.8251 258.721 48.8607 258.721 45.9919C258.721 41.4018 258.882 37.1942 259.204 33.3691C259.59 29.4803 259.783 26.6114 259.783 24.7627C259.783 23.7426 259.687 23.0095 259.493 22.5632C259.3 22.0532 258.818 21.7982 258.046 21.7982C257.145 21.7982 256.373 22.2126 255.73 23.0414C255.151 23.8064 254.668 24.8902 254.282 26.2927C253.446 28.9702 252.513 31.8391 251.483 34.8991C250.454 37.9592 249.36 40.9555 248.202 43.8881C247.108 46.8206 245.918 49.4344 244.631 51.7295C243.151 54.407 241.543 56.2239 239.806 57.1802C238.133 58.0727 236.428 58.519 234.691 58.519C231.988 58.519 229.929 57.6902 228.514 56.0327C227.163 54.3114 226.166 52.4307 225.522 50.3907C224.686 47.6494 223.914 44.0793 223.206 39.6805C222.498 35.2179 221.983 30.2134 221.662 24.667C221.533 22.3082 220.761 21.1288 219.346 21.1288C217.801 21.1288 216.579 22.2764 215.678 24.5714C214.906 26.8664 214.166 29.5759 213.458 32.6997C212.751 35.7598 212.172 38.9792 211.721 42.358C211.335 45.6731 211.142 48.9563 211.142 52.2076C211.142 54.9489 211.239 57.3396 211.432 59.3796C211.689 61.4197 211.818 63.3322 211.818 65.1173C211.818 66.3923 211.303 67.4442 210.274 68.2729C209.309 69.1017 208.15 69.7074 206.799 70.0899C205.448 70.4724 204.29 70.6636 203.325 70.6636Z" fill="#769382"/>
<path d="M289.286 22.1807C287.485 22.117 286.037 21.5751 284.943 20.5551C283.85 19.535 283.303 18.1006 283.303 16.2518C283.367 14.2756 284.043 12.6818 285.329 11.4705C286.616 10.1955 288.257 9.58983 290.251 9.65358C292.117 9.71733 293.565 10.2592 294.594 11.2792C295.688 12.2993 296.203 13.7337 296.138 15.5825C296.074 17.495 295.431 19.0888 294.208 20.3638C292.986 21.5751 291.345 22.1807 289.286 22.1807ZM289.383 70.6636C287.453 70.6636 285.941 70.1536 284.847 69.1336C283.753 68.0498 283.206 66.2329 283.206 63.6829C283.206 62.2166 283.335 60.7822 283.592 59.3796C283.914 57.9771 284.268 56.6065 284.654 55.2677C285.104 53.8651 285.458 52.4307 285.715 50.9645C286.037 49.4982 286.198 47.9363 286.198 46.2787C286.198 45.1312 286.037 44.0474 285.715 43.0274C285.394 41.9436 284.686 41.1468 283.592 40.6367C282.756 40.1905 282.016 39.7442 281.372 39.298C280.793 38.788 280.504 38.1504 280.504 37.3854C280.504 36.4929 280.922 35.5366 281.759 34.5166C282.595 33.4966 283.689 32.6359 285.04 31.9347C286.455 31.1697 287.903 30.7872 289.383 30.7872C290.991 30.7872 292.149 31.2015 292.857 32.0303C293.629 32.8591 294.144 33.911 294.401 35.186C294.659 36.461 294.787 37.7679 294.787 39.1067C294.787 41.1468 294.626 43.1549 294.305 45.1312C293.983 47.0437 293.661 48.8288 293.34 50.4863C293.082 51.6976 292.889 52.8132 292.761 53.8333C292.632 54.8533 292.568 55.8096 292.568 56.7021C292.568 58.2959 292.954 59.5071 293.726 60.3359C294.498 61.1009 295.592 61.8341 297.007 62.5353C297.586 62.8541 297.876 63.3322 297.876 63.9697C297.876 64.4797 297.618 65.2766 297.104 66.3604C296.589 67.4442 295.688 68.4323 294.401 69.3249C293.179 70.2174 291.506 70.6636 289.383 70.6636Z" fill="#769382"/>
<path d="M310.523 70.7593C308.207 70.7593 307.177 69.9942 307.435 68.4642C308.142 65.7229 308.721 62.9497 309.172 60.1447C309.686 57.2758 309.944 54.5345 309.944 51.9207C309.944 48.5419 309.719 46.0875 309.268 44.5574C308.882 42.9637 308.335 41.8799 307.628 41.3061C306.92 40.6686 306.051 40.1905 305.022 39.8717C304.571 39.6805 304.153 39.4255 303.767 39.1067C303.446 38.788 303.285 38.3417 303.285 37.7679C303.285 36.8754 303.639 35.8873 304.346 34.8035C305.054 33.7197 306.051 32.7953 307.338 32.0303C308.689 31.2015 310.201 30.7872 311.874 30.7872C314.062 30.7872 315.574 31.5522 316.41 33.0822C317.246 34.5485 317.665 36.4929 317.665 38.9155C317.665 40.5092 317.504 42.2943 317.182 44.2706C316.86 46.2469 316.539 48.0319 316.217 49.6257L316.506 49.7213C317.793 46.3425 319.337 43.2187 321.139 40.3499C323.005 37.4173 325.16 35.0585 327.605 33.2735C330.05 31.4884 332.881 30.5959 336.098 30.5959C339.508 30.5959 342.114 31.6159 343.915 33.656C345.717 35.696 346.617 38.2461 346.617 41.3061C346.617 42.5812 346.457 43.7924 346.135 44.94C345.878 46.0875 345.588 47.2031 345.266 48.2869C344.945 49.3069 344.655 50.3588 344.398 51.4426C344.205 52.5264 344.108 53.6101 344.108 54.6939C344.108 58.3277 345.845 60.7822 349.32 62.0572C350.22 62.4397 350.671 63.0135 350.671 63.7785C350.671 64.3522 350.478 65.181 350.092 66.2648C349.706 67.3486 348.998 68.3686 347.969 69.3249C346.939 70.2174 345.427 70.6636 343.433 70.6636C340.859 70.6636 338.865 69.7711 337.449 67.9861C336.034 66.1373 335.326 63.8104 335.326 61.0053C335.326 59.4115 335.487 57.8177 335.808 56.2239C336.194 54.5664 336.58 53.0364 336.967 51.6338C337.224 50.5501 337.449 49.4982 337.642 48.4782C337.899 47.3944 338.028 46.4381 338.028 45.6093C338.028 42.6768 336.484 41.2105 333.396 41.2105C330.758 41.2105 328.441 42.1987 326.447 44.1749C324.452 46.0875 322.747 48.51 321.332 51.4426C319.917 54.3752 318.758 57.3396 317.858 60.3359V62.631C317.858 64.9898 317.182 66.9342 315.831 68.4642C314.544 69.9942 312.775 70.7593 310.523 70.7593Z" fill="#769382"/>
<path d="M368.924 70.9505C365.064 70.9505 362.007 69.6755 359.756 67.1254C357.568 64.5754 356.474 61.1009 356.474 56.7021C356.474 53.4508 356.989 50.2632 358.018 47.1394C359.112 44.0156 360.624 41.2105 362.554 38.7242C364.485 36.2379 366.736 34.2616 369.31 32.7953C371.884 31.329 374.682 30.5959 377.706 30.5959C379.637 30.5959 381.342 30.8828 382.821 31.4565C384.365 32.0303 385.717 32.7634 386.875 33.656C386.81 29.3209 386.585 25.432 386.199 21.9895C385.813 18.5469 384.88 15.3593 383.4 12.4268C383.143 11.9168 382.918 11.4705 382.725 11.088C382.596 10.6417 382.532 10.2273 382.532 9.84483C382.532 8.95232 382.886 8.12355 383.593 7.35854C384.365 6.59352 385.298 5.956 386.392 5.44599C387.486 4.93598 388.515 4.68098 389.48 4.68098C391.218 4.68098 392.504 5.44599 393.341 6.97603C394.242 8.44231 394.821 10.4824 395.078 13.0962C395.335 15.6462 395.464 18.5788 395.464 21.8938C395.464 26.7389 395.239 31.1059 394.789 34.9947C394.338 38.8836 393.92 42.2943 393.534 45.2268C393.276 47.1394 393.051 48.7969 392.858 50.1994C392.665 51.602 392.569 52.7495 392.569 53.642C392.569 58.1684 394.531 60.8459 398.456 61.6747C399.485 61.8659 400 62.5353 400 63.6829C400 64.3841 399.775 65.2766 399.324 66.3604C398.938 67.4442 398.198 68.4323 397.105 69.3249C396.011 70.1536 394.435 70.568 392.376 70.568C389.609 70.568 387.743 69.6436 386.778 67.7948C385.813 65.946 385.331 63.141 385.331 59.3796C383.529 62.631 381.245 65.3723 378.478 67.6036C375.712 69.8349 372.527 70.9505 368.924 70.9505ZM371.916 60.7184C373.717 60.7184 375.519 60.1447 377.32 58.9971C379.122 57.8496 380.73 56.2877 382.146 54.3114C382.982 53.1001 383.722 51.7295 384.365 50.1994C385.073 48.6057 385.717 47.0119 386.296 45.4181C383.014 42.4855 379.379 41.0192 375.39 41.0192C371.916 41.0192 369.149 42.0711 367.09 44.1749C365.031 46.215 364.002 48.765 364.002 51.8251C364.002 54.4389 364.774 56.5746 366.318 58.2321C367.862 59.8897 369.728 60.7184 371.916 60.7184Z" fill="#769382"/>
</svg>
