<svg width="397" height="342" viewBox="0 0 397 342" fill="none" xmlns="http://www.w3.org/2000/svg">
<path d="M236.223 2.07366C290.239 -5.44214 345.58 6.96891 388.096 47.5676C430.351 87.917 456.802 153.106 459.896 244.993L459.91 245.372V245.75C459.91 364.122 370.605 435.362 281.448 441.073C236.697 443.939 190.912 430.438 156.255 397.344C121.428 364.088 100.106 313.246 100.106 245.75V245.251L100.129 244.751C101.499 213.896 116.207 184.904 135.945 162.473C155.701 140.021 182.214 122.152 210.255 114.881C238.776 107.485 270.408 110.928 295.404 133.996C319.576 156.303 333.547 193.376 336.348 244.519L336.409 245.639L336.359 246.761C335.029 276.376 324.807 299.685 307.598 314.503C290.453 329.266 268.648 333.523 249.068 329.017C229.559 324.527 211.921 311.259 202.943 291.017C193.855 270.526 194.785 245.685 206.677 219.739C211.86 208.431 225.229 203.465 236.537 208.648C247.845 213.83 252.81 227.199 247.628 238.507C239.922 255.32 241.329 266.458 244.121 272.753C247.022 279.296 252.667 283.621 259.172 285.119C265.606 286.599 272.547 285.239 278.206 280.367C283.699 275.636 290.198 265.579 291.302 245.841C288.678 201.194 276.749 178.077 264.854 167.1C253.682 156.79 238.982 153.968 221.561 158.485C203.659 163.127 184.618 175.349 169.763 192.23C155.02 208.986 146.089 228.377 145.154 246.277C145.263 303.796 163.247 341.736 187.364 364.765C211.724 388.026 244.63 398.291 278.568 396.118C346.695 391.754 414.674 337.827 414.861 246.13C411.957 161.857 387.956 109.719 356.987 80.1458C326.233 50.7785 285.515 40.6953 242.431 46.6899C154.335 58.948 63.9721 137.376 51.1375 237.913C49.562 250.252 38.2828 258.977 25.9441 257.402C13.6052 255.827 4.87911 244.548 6.4541 232.209C22.1258 109.448 130.12 16.8372 236.223 2.07366Z" fill="#A8BFAF" fill-opacity="0.25"/>
<path d="M57.0126 331.333C57.0126 347.077 44.2499 359.84 28.5063 359.84C12.7627 359.84 0 347.077 0 331.333C0 315.59 12.7627 302.827 28.5063 302.827C44.2499 302.827 57.0126 315.59 57.0126 331.333Z" fill="#A8BFAF" fill-opacity="0.25"/>
</svg>
