<svg width="16" height="16" viewBox="0 0 16 16" fill="none" xmlns="http://www.w3.org/2000/svg">
<path d="M8.53594 13.0665C8.70495 13.1933 8.90167 13.278 9.10988 13.3139C9.31809 13.3497 9.53183 13.3355 9.73349 13.2725C9.93515 13.2095 10.119 13.0995 10.2698 12.9515C10.4206 12.8036 10.534 12.6219 10.6008 12.4215C10.6677 12.221 10.6859 12.0076 10.654 11.7988C10.6222 11.5899 10.5411 11.3916 10.4176 11.2202C10.2941 11.0488 10.1316 10.9093 9.94351 10.813C9.75545 10.7167 9.54721 10.6665 9.33594 10.6665H1.33594M11.6693 5.33317C11.8397 5.1059 12.0654 4.92596 12.325 4.81046C12.5846 4.69496 12.8693 4.64773 13.1523 4.67324C13.4352 4.69875 13.707 4.79617 13.9417 4.95624C14.1764 5.11631 14.3663 5.33371 14.4933 5.58781C14.6204 5.84192 14.6804 6.12428 14.6676 6.40808C14.6548 6.69189 14.5697 6.96772 14.4204 7.20939C14.271 7.45105 14.0623 7.65053 13.8142 7.78887C13.5661 7.92722 13.2867 7.99984 13.0026 7.99984H1.33594M6.53594 2.93317C6.70495 2.80641 6.90167 2.72163 7.10988 2.68581C7.31809 2.64999 7.53183 2.66416 7.73349 2.72715C7.93515 2.79015 8.11896 2.90016 8.26976 3.04812C8.42056 3.19609 8.53404 3.37777 8.60085 3.5782C8.66766 3.77863 8.68588 3.99206 8.65402 4.20092C8.62216 4.40977 8.54112 4.60806 8.41759 4.77945C8.29406 4.95084 8.13157 5.09042 7.94351 5.18669C7.75545 5.28297 7.54721 5.33317 7.33594 5.33317H1.33594" stroke="#769382" stroke-width="1.33" stroke-linecap="round" stroke-linejoin="round"/>
</svg>
