<svg width="16" height="16" viewBox="0 0 16 16" fill="none" xmlns="http://www.w3.org/2000/svg">
<g clip-path="url(#clip0_476_15695)">
<path d="M8.00314 3.33353C8.00393 3.06688 7.95139 2.80277 7.84861 2.55673C7.74582 2.31069 7.59488 2.08768 7.40465 1.90083C7.21443 1.71397 6.98876 1.56704 6.74091 1.46868C6.49307 1.37032 6.22806 1.32251 5.96147 1.32807C5.69488 1.33363 5.4321 1.39244 5.18857 1.50104C4.94504 1.60964 4.72569 1.76585 4.54341 1.96047C4.36113 2.15508 4.21961 2.38419 4.12718 2.6343C4.03474 2.88441 3.99325 3.15048 4.00514 3.41686M8.00314 3.33353V12.0002M8.00314 3.33353C8.00236 3.06688 8.0549 2.80277 8.15768 2.55673C8.26046 2.31069 8.4114 2.08768 8.60163 1.90083C8.79186 1.71397 9.01753 1.56704 9.26537 1.46868C9.51321 1.37032 9.77822 1.32251 10.0448 1.32807C10.3114 1.33363 10.5742 1.39244 10.8177 1.50104C11.0612 1.60964 11.2806 1.76585 11.4629 1.96047C11.6451 2.15508 11.7867 2.38419 11.8791 2.6343C11.9715 2.88441 12.013 3.15048 12.0011 3.41686M4.00514 3.41686C3.61328 3.51762 3.24948 3.70623 2.9413 3.9684C2.63312 4.23058 2.38863 4.55945 2.22637 4.9301C2.06411 5.30075 1.98832 5.70346 2.00473 6.10774C2.02115 6.51202 2.12935 6.90726 2.32114 7.26353M4.00514 3.41686C4.01832 3.73923 4.10932 4.05361 4.27037 4.33318M2.32114 7.26353C1.98393 7.53748 1.71876 7.88968 1.5487 8.28949C1.37864 8.68929 1.30885 9.12459 1.34538 9.55752C1.38192 9.99045 1.52369 10.4079 1.75835 10.7735C1.993 11.1392 2.31345 11.442 2.69181 11.6555M2.32114 7.26353C2.44305 7.16424 2.57351 7.07649 2.71099 7.0002M2.69181 11.6555C2.64509 12.017 2.67297 12.3843 2.77373 12.7345C2.8745 13.0848 3.04601 13.4108 3.27767 13.6922C3.50932 13.9736 3.79622 14.2045 4.12062 14.3707C4.44503 14.5369 4.80006 14.6348 5.16379 14.6584C5.52753 14.682 5.89224 14.6308 6.2354 14.5079C6.57856 14.3851 6.8929 14.1931 7.15898 13.944C7.42507 13.6949 7.63726 13.3939 7.78245 13.0596C7.92764 12.7252 8.00275 12.3647 8.00314 12.0002M2.69181 11.6555C3.09183 11.8812 3.54337 12.0003 4.00264 12.0001M8.00314 12.0002C8.00353 12.3647 8.07864 12.7252 8.22383 13.0596C8.36902 13.3939 8.58122 13.6949 8.8473 13.944C9.11339 14.1931 9.42772 14.3851 9.77088 14.5079C10.114 14.6308 10.4788 14.682 10.8425 14.6584C11.2062 14.6348 11.5613 14.5369 11.8857 14.3707C12.2101 14.2045 12.497 13.9736 12.7286 13.6922C12.9603 13.4108 13.1318 13.0848 13.2325 12.7345C13.3333 12.3843 13.3612 12.017 13.3145 11.6555M12.0011 3.41686C12.393 3.51762 12.7568 3.70623 13.065 3.9684C13.3732 4.23058 13.6177 4.55945 13.7799 4.9301C13.9422 5.30075 14.018 5.70346 14.0015 6.10774C13.9851 6.51202 13.8769 6.90726 13.6851 7.26353M12.0011 3.41686C11.9878 3.73928 11.8971 4.05367 11.7358 4.33318M13.6851 7.26353C14.0224 7.53748 14.2875 7.88968 14.4576 8.28949C14.6276 8.68929 14.6974 9.12459 14.6609 9.55752C14.6244 9.99045 14.4826 10.4079 14.2479 10.7735C14.0133 11.1392 13.6928 11.442 13.3145 11.6555M13.6851 7.26353C13.5632 7.16424 13.4326 7.07649 13.2951 7.0002M13.3145 11.6555C12.9145 11.8812 12.4624 12.0003 12.0031 12.0001M10.0031 8.66686C9.44344 8.46997 8.95469 8.11153 8.59869 7.63687C8.2427 7.16221 8.03544 6.59264 8.00314 6.0002C7.97084 6.59264 7.76359 7.16221 7.40759 7.63687C7.0516 8.11153 6.56285 8.46997 6.00314 8.66686" stroke="#769382" stroke-width="1.33" stroke-linecap="round" stroke-linejoin="round"/>
</g>
<defs>
<clipPath id="clip0_476_15695">
<rect width="16" height="16" fill="white"/>
</clipPath>
</defs>
</svg>
