<svg width="16" height="16" viewBox="0 0 16 16" fill="none" xmlns="http://www.w3.org/2000/svg">
<g clip-path="url(#clip0_476_15721)">
<path d="M12.003 7.3341V4.00033C12.003 3.64667 11.8625 3.30748 11.6124 3.0574C11.3624 2.80732 11.0232 2.66683 10.6695 2.66683C10.3158 2.66683 9.97666 2.80732 9.72658 3.0574C9.4765 3.30748 9.33601 3.64667 9.33601 4.00033M9.33601 6.66683V2.66683C9.33601 2.31321 9.19553 1.97407 8.94548 1.72402C8.69543 1.47397 8.35629 1.3335 8.00267 1.3335C7.64905 1.3335 7.30991 1.47397 7.05986 1.72402C6.80982 1.97407 6.66934 2.31321 6.66934 2.66683V4.00016M6.66934 4.00016V7.00016M6.66934 4.00016C6.66934 3.64654 6.52886 3.3074 6.27881 3.05735C6.02877 2.80731 5.68963 2.66683 5.33601 2.66683C4.98238 2.66683 4.64325 2.80731 4.3932 3.05735C4.14315 3.3074 4.00267 3.64654 4.00267 4.00016V9.3335M12.0027 5.3335C12.0027 4.97987 12.1431 4.64074 12.3932 4.39069C12.6432 4.14064 12.9824 4.00016 13.336 4.00016C13.6896 4.00016 14.0288 4.14064 14.2788 4.39069C14.5289 4.64074 14.6693 4.97987 14.6693 5.3335V9.3335C14.6693 10.748 14.1074 12.1045 13.1072 13.1047C12.107 14.1049 10.7505 14.6668 9.33601 14.6668H8.00267C6.13601 14.6668 5.00267 14.0935 4.00934 13.1068L1.60934 10.7068C1.37996 10.4528 1.25706 10.1203 1.26609 9.77812C1.27511 9.43597 1.41537 9.1104 1.65782 8.8688C1.90027 8.62721 2.22634 8.48811 2.56852 8.48029C2.9107 8.47248 3.24278 8.59655 3.49601 8.82683L4.66934 10.0002" stroke="#769382" stroke-width="1.33" stroke-linecap="round" stroke-linejoin="round"/>
</g>
<defs>
<clipPath id="clip0_476_15721">
<rect width="16" height="16" fill="white"/>
</clipPath>
</defs>
</svg>
