<svg width="16" height="16" viewBox="0 0 16 16" fill="none" xmlns="http://www.w3.org/2000/svg">
<path d="M8.14638 2H7.85362C7.50069 2 7.16221 2.13696 6.91265 2.38076C6.66309 2.62456 6.52289 2.95522 6.52289 3.3V3.417C6.52265 3.64497 6.46104 3.86887 6.34426 4.06624C6.22748 4.26362 6.05961 4.42751 5.85752 4.5415L5.57141 4.704C5.36911 4.8181 5.13964 4.87817 4.90604 4.87817C4.67245 4.87817 4.44297 4.8181 4.24068 4.704L4.14087 4.652C3.83551 4.47992 3.47273 4.43324 3.13218 4.5222C2.79162 4.61116 2.50111 4.8285 2.32442 5.1265L2.17804 5.3735C2.00189 5.67181 1.95411 6.02621 2.04517 6.3589C2.13624 6.69159 2.35871 6.97539 2.66376 7.148L2.76356 7.213C2.96469 7.32643 3.13192 7.48931 3.24865 7.68544C3.36537 7.88157 3.42753 8.10413 3.42893 8.331V8.6625C3.42986 8.89157 3.36881 9.11682 3.25197 9.31543C3.13513 9.51404 2.96664 9.67896 2.76356 9.7935L2.66376 9.852C2.35871 10.0246 2.13624 10.3084 2.04517 10.6411C1.95411 10.9738 2.00189 11.3282 2.17804 11.6265L2.32442 11.8735C2.50111 12.1715 2.79162 12.3888 3.13218 12.4778C3.47273 12.5668 3.83551 12.5201 4.14087 12.348L4.24068 12.296C4.44297 12.1819 4.67245 12.1218 4.90604 12.1218C5.13964 12.1218 5.36911 12.1819 5.57141 12.296L5.85752 12.4585C6.05961 12.5725 6.22748 12.7364 6.34426 12.9338C6.46104 13.1311 6.52265 13.355 6.52289 13.583V13.7C6.52289 14.0448 6.66309 14.3754 6.91265 14.6192C7.16221 14.863 7.50069 15 7.85362 15H8.14638C8.49931 15 8.83779 14.863 9.08735 14.6192C9.33691 14.3754 9.47711 14.0448 9.47711 13.7V13.583C9.47735 13.355 9.53896 13.1311 9.65574 12.9338C9.77252 12.7364 9.94039 12.5725 10.1425 12.4585L10.4286 12.296C10.6309 12.1819 10.8604 12.1218 11.094 12.1218C11.3275 12.1218 11.557 12.1819 11.7593 12.296L11.8591 12.348C12.1645 12.5201 12.5273 12.5668 12.8678 12.4778C13.2084 12.3888 13.4989 12.1715 13.6756 11.8735L13.822 11.62C13.9981 11.3217 14.0459 10.9673 13.9548 10.6346C13.8638 10.3019 13.6413 10.0181 13.3362 9.8455L13.2364 9.7935C13.0334 9.67896 12.8649 9.51404 12.748 9.31543C12.6312 9.11682 12.5701 8.89157 12.5711 8.6625V8.3375C12.5701 8.10843 12.6312 7.88318 12.748 7.68457C12.8649 7.48596 13.0334 7.32104 13.2364 7.2065L13.3362 7.148C13.6413 6.97539 13.8638 6.69159 13.9548 6.3589C14.0459 6.02621 13.9981 5.67181 13.822 5.3735L13.6756 5.1265C13.4989 4.8285 13.2084 4.61116 12.8678 4.5222C12.5273 4.43324 12.1645 4.47992 11.8591 4.652L11.7593 4.704C11.557 4.8181 11.3275 4.87817 11.094 4.87817C10.8604 4.87817 10.6309 4.8181 10.4286 4.704L10.1425 4.5415C9.94039 4.42751 9.77252 4.26362 9.65574 4.06624C9.53896 3.86887 9.47735 3.64497 9.47711 3.417V3.3C9.47711 2.95522 9.33691 2.62456 9.08735 2.38076C8.83779 2.13696 8.49931 2 8.14638 2Z" stroke="#769382" stroke-width="1.33" stroke-linecap="round" stroke-linejoin="round"/>
<path d="M7.99998 10.45C9.1024 10.45 9.99608 9.57696 9.99608 8.5C9.99608 7.42305 9.1024 6.55 7.99998 6.55C6.89757 6.55 6.00388 7.42305 6.00388 8.5C6.00388 9.57696 6.89757 10.45 7.99998 10.45Z" stroke="#769382" stroke-width="1.33" stroke-linecap="round" stroke-linejoin="round"/>
</svg>
