<svg width="16" height="16" viewBox="0 0 16 16" fill="none" xmlns="http://www.w3.org/2000/svg">
<path d="M6.66667 2V3.33333M9.33334 2V3.33333M10.6667 6C10.8435 6 11.013 6.07024 11.1381 6.19526C11.2631 6.32029 11.3333 6.48985 11.3333 6.66667V12C11.3333 12.7072 11.0524 13.3855 10.5523 13.8856C10.0522 14.3857 9.37391 14.6667 8.66667 14.6667H4.66667C3.95942 14.6667 3.28115 14.3857 2.78105 13.8856C2.28095 13.3855 2 12.7072 2 12V6.66667C2 6.48985 2.07024 6.32029 2.19526 6.19526C2.32029 6.07024 2.48986 6 2.66667 6H12C12.7072 6 13.3855 6.28095 13.8856 6.78105C14.3857 7.28114 14.6667 7.95942 14.6667 8.66667C14.6667 9.37391 14.3857 10.0522 13.8856 10.5523C13.3855 11.0524 12.7072 11.3333 12 11.3333H11.3333M4 2V3.33333" stroke="#769382" stroke-width="1.33" stroke-linecap="round" stroke-linejoin="round"/>
</svg>
