<svg width="16" height="16" viewBox="0 0 16 16" fill="none" xmlns="http://www.w3.org/2000/svg">
<path d="M10.6671 11.3335H13.3341M2.6671 8.66683H5.3341M2.6671 10.6668V9.08016C2.6671 7.66683 1.98043 7.00016 2.00043 5.3335C2.02043 3.52016 2.99376 1.3335 5.00043 1.3335C6.2471 1.3335 6.66709 2.5335 6.66709 3.66683C6.66709 5.74016 5.33376 7.44016 5.33376 9.4535V10.6668C5.33376 11.0205 5.19329 11.3596 4.94324 11.6096C4.69319 11.8597 4.35405 12.0002 4.00043 12.0002C3.64681 12.0002 3.30767 11.8597 3.05762 11.6096C2.80757 11.3596 2.6671 11.0205 2.6671 10.6668ZM13.3338 13.3335V11.7468C13.3338 10.3335 14.0204 9.66683 14.0004 8.00016C13.9804 6.18683 13.0071 4.00016 11.0004 4.00016C9.75376 4.00016 9.33376 5.20016 9.33376 6.3335C9.33376 8.40683 10.6671 10.1068 10.6671 12.1202V13.3335C10.6671 13.6871 10.8076 14.0263 11.0576 14.2763C11.3077 14.5264 11.6468 14.6668 12.0004 14.6668C12.3541 14.6668 12.6932 14.5264 12.9432 14.2763C13.1933 14.0263 13.3338 13.6871 13.3338 13.3335Z" stroke="#769382" stroke-width="1.33" stroke-linecap="round" stroke-linejoin="round"/>
</svg>
