<svg width="16" height="16" viewBox="0 0 16 16" fill="none" xmlns="http://www.w3.org/2000/svg">
<g clip-path="url(#clip0_476_15675)">
<path d="M8.0026 14.6668C11.6845 14.6668 14.6693 11.6821 14.6693 8.00016C14.6693 4.31826 11.6845 1.3335 8.0026 1.3335C4.32071 1.3335 1.33594 4.31826 1.33594 8.00016C1.33594 11.6821 4.32071 14.6668 8.0026 14.6668Z" stroke="#769382" stroke-width="1.33295" stroke-linecap="round" stroke-linejoin="round"/>
<path d="M9.33594 6.00016H6.66927C6.30108 6.00016 6.0026 6.29864 6.0026 6.66683V9.3335C6.0026 9.70169 6.30108 10.0002 6.66927 10.0002H9.33594C9.70413 10.0002 10.0026 9.70169 10.0026 9.3335V6.66683C10.0026 6.29864 9.70413 6.00016 9.33594 6.00016Z" stroke="#769382" stroke-width="1.33295" stroke-linecap="round" stroke-linejoin="round"/>
</g>
<defs>
<clipPath id="clip0_476_15675">
<rect width="16" height="16" fill="white"/>
</clipPath>
</defs>
</svg>
