<svg width="16" height="16" viewBox="0 0 16 16" fill="none" xmlns="http://www.w3.org/2000/svg">
<path d="M10.4118 5V3.5C10.4118 3.10218 10.2506 2.72064 9.96381 2.43934C9.67699 2.15804 9.28798 2 8.88235 2H3.52941C3.12379 2 2.73477 2.15804 2.44795 2.43934C2.16113 2.72064 2 3.10218 2 3.5V12.5C2 12.8978 2.16113 13.2794 2.44795 13.5607C2.73477 13.842 3.12379 14 3.52941 14H8.88235C9.28798 14 9.67699 13.842 9.96381 13.5607C10.2506 13.2794 10.4118 12.8978 10.4118 12.5V11M5.82353 8H15M15 8L12.7059 5.75M15 8L12.7059 10.25" stroke="#769382" stroke-width="1.33" stroke-linecap="round" stroke-linejoin="round"/>
</svg>
