<svg width="16" height="16" viewBox="0 0 16 16" fill="none" xmlns="http://www.w3.org/2000/svg">
<path d="M10.4 14V3.33333C10.4 2.97971 10.2736 2.64057 10.0485 2.39052C9.82348 2.14048 9.51826 2 9.2 2H6.8C6.48174 2 6.17652 2.14048 5.95147 2.39052C5.72643 2.64057 5.6 2.97971 5.6 3.33333V14M3.2 4.66667H12.8C13.4627 4.66667 14 5.26362 14 6V12.6667C14 13.403 13.4627 14 12.8 14H3.2C2.53726 14 2 13.403 2 12.6667V6C2 5.26362 2.53726 4.66667 3.2 4.66667Z" stroke="#769382" stroke-width="1.33295" stroke-linecap="round" stroke-linejoin="round"/>
</svg>
